<?xml version="1.0" encoding="UTF-8"?>
<svg version="1.1" viewBox="0 0 51.078 4.7688" xmlns="http://www.w3.org/2000/svg">
 <g transform="translate(-1.36 -1.4401)">
  <g stroke-width=".4131" aria-label="&lt;/&gt; DEVAUSTA.FI">
   <path d="m3.8584 2.4662q0.049571-0.019829 0.084271 0.00496 0.039657 0.024786 0.039657 0.079314v0.29743q0 0.084271-0.0694 0.1041l-1.963 0.71878q-0.039657 0.014871-0.039657 0.054528v0.029743q0 0.039657 0.039657 0.054528l1.963 0.71878q0.0694 0.019829 0.0694 0.1041v0.29743q0 0.054528-0.039657 0.079314-0.0347 0.019829-0.084271 0.00496l-2.2803-0.84271q-0.11897-0.044614-0.16854-0.1041-0.049571-0.064443-0.049571-0.17846v-0.29743q0-0.11401 0.049571-0.1735 0.049571-0.064443 0.16854-0.10906z"/>
   <path d="m6.1486 1.4401q0.094186 0 0.059486 0.089228l-1.4871 4.6002q-0.014871 0.039657-0.029743 0.059486-0.014871 0.019829-0.064443 0.019829h-0.347q-0.089228 0-0.059486-0.089228l1.4871-4.5953q0.014871-0.044614 0.029743-0.064443 0.014871-0.019829 0.064443-0.019829z"/>
   <path d="m6.57 5.0142q-0.049571 0.019829-0.089228-0.00496-0.0347-0.024786-0.0347-0.079314v-0.29742q0-0.084271 0.0694-0.1041l1.963-0.71878q0.039657-0.014871 0.039657-0.054528v-0.029743q0-0.039657-0.039657-0.054528l-1.963-0.71878q-0.0694-0.019829-0.0694-0.1041v-0.29743q0-0.054528 0.0347-0.074357 0.039657-0.024786 0.089228-0.00991l2.2803 0.84271q0.11897 0.044614 0.16854 0.10906 0.049571 0.059486 0.049571 0.1735v0.29743q0 0.11401-0.049571 0.17846-0.049571 0.059486-0.16854 0.1041z"/>
   <path d="m13.738 2.0102q0.40153 0 0.68904 0.084271 0.28751 0.079314 0.47093 0.25281 0.18341 0.16854 0.26769 0.43623 0.08923 0.26273 0.08923 0.6246v0.67417q0 0.36187-0.08923 0.62956-0.08427 0.26273-0.26769 0.43623-0.18341 0.16854-0.47093 0.25281-0.28751 0.079314-0.68904 0.079314h-2.3199q-0.14871 0-0.14871-0.14871v-3.1726q0-0.14871 0.14871-0.14871zm-1.7102 2.7165q0 0.064443 0.06444 0.064443h1.6259q0.21811 0 0.36683-0.039657t0.23794-0.12889q0.09419-0.089228 0.13384-0.23794 0.03966-0.14871 0.03966-0.36683v-0.54528q0-0.21811-0.03966-0.36683-0.039654-0.14871-0.13384-0.23794-0.089228-0.089228-0.23794-0.12889-0.14871-0.039657-0.36683-0.039657h-1.6259q-0.06444 0-0.06444 0.0694z"/>
   <path d="m19.404 2.0102q0.11401 0 0.11401 0.10906v0.47093q0 0.10906-0.11401 0.10906h-2.1663q-0.19333 0-0.32221 0.0347-0.12393 0.029743-0.20324 0.10906-0.07436 0.074357-0.1041 0.2082-0.02974 0.12889-0.02974 0.32221v0.049571h2.8008q0.10906 0 0.10906 0.10906v0.39161q0 0.10906-0.10906 0.10906h-2.8008v0.084271q0 0.19333 0.02974 0.32717 0.02974 0.12889 0.1041 0.2082 0.07931 0.074357 0.20324 0.10906 0.12888 0.029743 0.32221 0.029743h2.1663q0.11401 0 0.11401 0.10906v0.47093q0 0.10906-0.11401 0.10906h-2.1811q-0.37674 0-0.63947-0.0694t-0.43127-0.22307q-0.16358-0.15863-0.2429-0.40648-0.074357-0.25281-0.074357-0.60973v-0.85263q0-0.35691 0.07436-0.60477 0.07931-0.24786 0.2429-0.40153 0.16854-0.15863 0.43127-0.22803 0.26273-0.074357 0.63947-0.074357z"/>
   <path d="m20.539 2.0102q0.04957 0 0.0694 0.014871 0.02479 0.014871 0.04461 0.049571l1.4524 2.6669q0.01487 0.0347 0.05949 0.0347h0.02479q0.0347 0 0.05453-0.0347l1.4326-2.6669q0.02974-0.064443 0.11401-0.064443h0.64938q0.05949 0 0.0694 0.0347 0.01487 0.029743-0.0099 0.079314l-1.6259 2.9792q-0.12393 0.22803-0.2429 0.30238-0.11897 0.074357-0.2776 0.074357h-0.28751q-0.19333 0-0.32221-0.074357-0.12393-0.074357-0.24786-0.30238l-1.6458-2.9792q-0.02479-0.049571-0.01487-0.079314 0.01487-0.0347 0.07931-0.0347z"/>
   <path d="m26.18 2.0102q0.18837 0 0.31726 0.079314 0.12888 0.074357 0.25281 0.29743l1.6408 2.9792q0.02479 0.049571 0.0099 0.084271-0.0099 0.029743-0.0694 0.029743h-0.62956q-0.08427 0-0.11401-0.064443l-0.35194-0.63947h-2.3299l-0.34204 0.63947q-0.0347 0.064443-0.11401 0.064443h-0.64443q-0.06444 0-0.07931-0.029743-0.0099-0.0347 0.01487-0.084271l1.6259-2.9792q0.12393-0.22307 0.2429-0.29743 0.11897-0.079314 0.2776-0.079314zm-0.96168 2.1911h1.7053l-0.78818-1.4524q-0.01983-0.0347-0.05453-0.0347h-0.02974q-0.0347 0-0.05453 0.0347z"/>
   <path d="m29.254 2.0102q0.10906 0 0.10906 0.10906v1.9779q0 0.19829 0.02974 0.33213 0.0347 0.12889 0.10906 0.2082 0.07436 0.074357 0.19828 0.10906 0.12888 0.029743 0.32221 0.029743h1.3731q0.19333 0 0.31726-0.029743 0.12888-0.0347 0.20324-0.10906 0.07436-0.079314 0.1041-0.2082 0.02974-0.13384 0.02974-0.33213v-1.9779q0-0.10906 0.10906-0.10906h0.54033q0.10906 0 0.10906 0.10906v2.0523q0 0.35691-0.07436 0.60973-0.07436 0.24786-0.2429 0.40648-0.16358 0.15367-0.43127 0.22307-0.26273 0.0694-0.63947 0.0694h-1.4277q-0.37674 0-0.63947-0.0694t-0.43127-0.22307q-0.16359-0.15863-0.2429-0.40648-0.07436-0.25281-0.07436-0.60973v-2.0523q0-0.10906 0.11401-0.10906z"/>
   <path d="m36.903 2.0102q0.10906 0 0.10906 0.10906v0.47093q0 0.10906-0.10906 0.10906h-2.4835q-0.14376 0-0.20324 0.074357-0.05949 0.074357-0.05949 0.20324v0.16854q0 0.2776 0.25777 0.2776h1.8589q0.43127 0 0.64938 0.22307 0.21811 0.21811 0.21811 0.62956v0.39657q0 0.36187-0.21316 0.58494-0.21316 0.22307-0.66426 0.22307h-2.7462q-0.11401 0-0.11401-0.10906v-0.47093q0-0.10906 0.11401-0.10906h2.6025q0.14376 0 0.20324-0.074357 0.05948-0.074357 0.05948-0.20324v-0.20324q0-0.2776-0.25777-0.2776h-1.8589q-0.43127 0-0.64938-0.21811-0.2181-0.22307-0.2181-0.63451v-0.36187q0-0.36187 0.21316-0.58494 0.21316-0.22307 0.66426-0.22307z"/>
   <path d="m41.478 2.0102q0.11401 0 0.11401 0.10906v0.4858q0 0.11401-0.11401 0.11401h-1.5565v2.6521q0 0.10906-0.10906 0.10906h-0.54033q-0.10906 0-0.10906-0.10906v-2.6521h-1.5565q-0.11401 0-0.11401-0.11401v-0.4858q0-0.10906 0.11401-0.10906z"/>
   <path d="m43.59 2.0102q0.18837 0 0.31726 0.079314 0.12888 0.074357 0.25281 0.29743l1.6408 2.9792q0.02478 0.049571 0.0099 0.084271-0.0099 0.029743-0.0694 0.029743h-0.62954q-0.08427 0-0.11401-0.064443l-0.35196-0.63947h-2.3299l-0.34204 0.63947q-0.0347 0.064443-0.11401 0.064443h-0.64443q-0.06444 0-0.07932-0.029743-0.0099-0.0347 0.01487-0.084271l1.6259-2.9792q0.12393-0.22307 0.2429-0.29743 0.11897-0.079314 0.2776-0.079314zm-0.96168 2.1911h1.7053l-0.78818-1.4524q-0.01983-0.0347-0.05453-0.0347h-0.02974q-0.0347 0-0.05453 0.0347z"/>
   <path d="m46.802 4.7861q0.10906 0 0.10906 0.10906v0.47588q0 0.10906-0.10906 0.10906h-0.4858q-0.11401 0-0.11401-0.10906v-0.47588q0-0.10906 0.11401-0.10906z"/>
   <path d="m51.075 2.0102q0.11401 0 0.11401 0.10906v0.47093q0 0.10906-0.11401 0.10906h-2.1514q-0.19333 0-0.32221 0.0347-0.12393 0.029743-0.19828 0.10906-0.07436 0.074357-0.10906 0.2082-0.02974 0.12889-0.02974 0.32221v0.099143h2.7859q0.10906 0 0.10906 0.10906v0.39161q0 0.10906-0.10906 0.10906h-2.7859v1.2889q0 0.10906-0.10906 0.10906h-0.53537q-0.11401 0-0.11401-0.10906v-2.0523q0-0.35691 0.07436-0.60477 0.07931-0.24786 0.2429-0.40153 0.16854-0.15863 0.43127-0.22803 0.26273-0.074357 0.63947-0.074357z"/>
   <path d="m52.329 2.0102q0.10906 0 0.10906 0.10906v3.2519q0 0.10906-0.10906 0.10906h-0.53537q-0.11401 0-0.11401-0.10906v-3.2519q0-0.10906 0.11401-0.10906z"/>
  </g>
 </g>
</svg>
